<?xml version="1.0" encoding="UTF-8"?>
<svg version="1.1" viewBox="0 0 1600 1600" width="1280" height="1280" xmlns="http://www.w3.org/2000/svg">
<path transform="translate(580,436)" d="m0 0c0.854 0.0114 1.71 0.0228 2.59 0.0346 48 0.637 96 1.06 144 1.25 2.47 0.00964 4.95 0.0193 7.42 0.0289 20.1 0.0779 40.3 0.149 60.4 0.216 14 0.0469 28 0.0959 42 0.151 7.11 0.028 14.2 0.0517 21.3 0.0719 4.39 0.0134 8.77 0.0308 13.2 0.0493 2.01 0.0077 4.03 0.0138 6.04 0.0181 9.76 0.0217 19.4 0.131 29.2 0.975 3.91 0.291 7.76 0.157 11.7 0.0204 7.64-0.144 14.3 1.09 21.6 3.21 3.52 0.963 6.94 1.47 10.6 1.97 2.36 0.943 4.69 1.95 7 3 1.19 0.434 2.37 0.869 3.59 1.32 17.1 6.38 32.8 15.3 47 26.8 1.85 1.48 3.72 2.9 5.63 4.3 8.53 6.36 15.1 13.3 21.7 21.6 1.22 1.38 2.45 2.76 3.69 4.12 10.7 12.1 10.7 12.1 11.9 17.1 0.152 0.572 0.304 1.14 0.461 1.73 0.99 0.33 1.98 0.66 3 1 1.03 1.57 1.03 1.57 1.94 3.57 0.339 0.723 0.678 1.45 1.03 2.19 0.342 0.738 0.683 1.48 1.04 2.24 0.661 1.31 1.33 2.62 2 3.93 5.28 10.4 9.69 20.6 13 31.8 0.621 2.05 1.28 4.09 2 6.11 3.79 10.9 5.01 22.4 6.58 33.8 0.299 2.41 0.299 2.41 1.42 4.41 0.384 4.76 0.48 9.54 0.625 14.3 0.0218 0.698 0.0436 1.4 0.066 2.12 0.265 8.82 0.418 17.6 0.059 26.4-0.0394 1.21-0.0394 1.21-0.0796 2.44-0.261 4.86-1.32 8.9-2.97 13.5-1.33 4.2-1.52 8.54-1.88 12.9-0.433 4.53-1.43 8.32-3.13 12.5-0.818 2.08-1.29 4.13-1.7 6.33-0.84 4.08-2.3 7.62-4 11.4-0.309 1.11-0.619 2.23-0.938 3.38-1.5 5.11-3.68 9.87-6.06 14.6h-2c-0.351 1.26-0.701 2.52-1.06 3.81-1.99 6.02-5.44 10.9-8.94 16.2-0.505 0.871-1.01 1.74-1.53 2.64-1.35 2.17-2.66 3.58-4.47 5.36-1.43 1.91-2.84 3.83-4.25 5.75-13.6 18.2-31.5 32.4-50.8 44.2-0.935 0.588-1.87 1.18-2.83 1.78-6.65 4.06-13.4 7.12-20.6 9.87-2.97 1.13-5.87 2.34-8.79 3.6-4.35 1.76-8.66 2.59-13.3 3.26-2.42 0.369-2.42 0.369-4.32 1.47-2.25 1.08-4.07 1.46-6.54 1.8-0.838 0.119-1.68 0.237-2.54 0.36-0.881 0.119-1.76 0.237-2.67 0.359-1.82 0.257-3.64 0.516-5.46 0.777-1.29 0.185-1.29 0.185-2.61 0.375-2.54 0.384-5.04 0.863-7.55 1.41-5.11 1.11-10.3 1.64-15.5 2.15-1.76 0.194-3.52 0.482-5.27 0.785-0.33 0.66-0.66 1.32-1 2 1.28 2.64 1.28 2.64 3.12 5.56 0.655 1.09 1.31 2.18 1.98 3.3 0.624 1.04 1.25 2.07 1.89 3.14 0.8 1.43 1.59 2.87 2.38 4.31 2.25 4.09 4.65 8.07 7.06 12.1 3.7 6.12 7.18 12.3 10.6 18.6 0.892 1.63 1.79 3.25 2.69 4.88 0.563 1.02 0.563 1.02 1.14 2.05 1.35 2.38 2.76 4.72 4.18 7.07 1.13 1.91 2.25 3.83 3.38 5.75 0.565 0.964 1.13 1.93 1.71 2.92 1.44 2.5 2.84 5.01 4.23 7.53 2.95 5.33 6.06 10.6 9.18 15.8 10.8 18.1 10.8 18.1 13.5 25-10.5 0.162-20.9 0.287-31.4 0.363-4.86 0.0365-9.71 0.086-14.6 0.165-4.69 0.0762-9.38 0.118-14.1 0.136-1.79 0.0129-3.57 0.0381-5.36 0.076-14 0.284-14 0.284-18-2.21-1.58-1.79-2.59-3.38-3.62-5.53-0.777-1.28-1.56-2.56-2.34-3.83-0.726-1.32-1.45-2.65-2.16-3.98-0.778-1.42-1.56-2.84-2.34-4.25-0.371-0.678-0.742-1.36-1.12-2.06-1.77-3.21-3.68-6.33-5.58-9.46-4.53-7.5-8.89-15.1-13-22.8-1.79-3.28-3.65-6.51-5.54-9.74-0.883-1.88-0.883-1.88-0.883-4.88h-2c-0.413-0.866-0.825-1.73-1.25-2.62-1.69-3.42-1.69-3.42-3.94-6.56-1.81-2.81-1.81-2.81-1.81-5.81h-2c-0.473-0.981-0.946-1.96-1.43-2.97-4.71-9.66-9.85-18.9-15.6-28-0.554-1.04-1.11-2.08-1.68-3.15-2.08-3.13-2.08-3.13-5.57-3.65-1.31-0.0222-2.62-0.0444-3.97-0.0672-1.11-0.0294-1.11-0.0294-2.24-0.0594-2.52-0.0562-5.03-0.0661-7.55-0.0727-1.83-0.022-3.67-0.0449-5.5-0.0688-6.37-0.0652-12.7-0.0552-19.1-0.0447-2.44 2.83e-4 -4.87 1.23e-4 -7.31-4.43e-4 -5.21-2.26e-4 -10.4 0.00257-15.6 0.00824-7.53 0.00818-15.1 0.0107-22.6 0.012-12.2 0.00218-24.5 0.00881-36.7 0.0183-11.9 0.0092-23.7 0.0163-35.6 0.0205-0.733 2.63e-4 -1.47 5.25e-4 -2.22 7.96e-4 -3.68 0.00131-7.36 0.00257-11 0.00381-30.4 0.0103-60.9 0.028-91.3 0.0503-1-3-1-3 0.199-5.77 1.85-3.32 3.71-6.63 5.61-9.92 2.49-4.33 4.94-8.67 7.31-13.1 3.26-6.02 6.81-11.9 10.4-17.7 2.56-4.23 5.04-8.49 7.38-12.9 2.88-5.35 6.05-10.5 9.29-15.6 1.78-2.95 3.32-5.95 4.83-9.04 2.65-5.04 5.54-9.9 8.62-14.7 2.37-3.69 4.48-7.35 6.38-11.3 2.77-5.24 5.79-10.3 8.94-15.3 3.32-5.32 6.18-10.7 8.84-16.4 1.23-2.27 1.23-2.27 3.23-3.27 1.1-2.05 2.13-4.14 3.12-6.25 2.97-6.14 6.34-11.9 9.98-17.7 1.69-2.73 3.25-5.49 4.77-8.32 4.55-8.49 9.55-16.7 14.5-25 5.04-8.51 9.99-17 14.7-25.8 1.66-3 3.33-6 5-9h2c0.206-0.763 0.413-1.53 0.625-2.31 4.51-12.1 12.3-23.3 19-34.3 1.03-1.73 2.02-3.49 2.98-5.27 6.75-12.2 6.75-12.2 12.4-15.1 2.8-0.361 4.32-0.47 6.67 1.15 6.18 7.25 10.7 15.6 15.3 23.8 0.651 1.15 1.3 2.29 1.97 3.48 4.03 7.22 4.03 7.22 4.03 9.52h2c0.233 0.501 0.467 1 0.707 1.52 6.67 13.8 14.9 27 22.9 40.1 0.529 0.873 1.06 1.75 1.6 2.64 0.468 0.768 0.936 1.54 1.42 2.33 0.986 1.71 1.91 3.46 2.79 5.23 1.89 3.75 4.02 7.33 6.17 10.9 4.1 6.9 8.02 13.9 11.9 20.9 2.87 5.2 5.93 10.2 9.28 15.1 1.38 2.44 1.88 4.5 2.28 7.26h2c0.303 0.617 0.606 1.23 0.918 1.87 4.43 8.97 9.32 17.6 14.5 26.1 2.85 4.73 5.58 9.51 8.27 14.3 3.33 5.96 6.7 11.9 10.3 17.7 0.754 1.22 0.754 1.22 1.52 2.46 2.77 4.34 5.28 7.45 9.48 10.5v2c5.08 1.76 9.09 2.06 14.5 1.59 6.35-0.5 12.7-0.725 19.1-0.832 0.91-0.0166 1.82-0.0331 2.76-0.0502 3.77-0.0669 7.54-0.129 11.3-0.18 2.79-0.0396 5.58-0.0911 8.37-0.144 0.851-0.00841 1.7-0.0168 2.58-0.0255 0.792-0.0166 1.58-0.0333 2.4-0.0504 0.692-0.0103 1.38-0.0206 2.1-0.0312 2.31-0.318 3.92-1.19 5.97-2.27 2.52-0.309 2.52-0.309 5.25-0.438 5.01-0.396 9.16-1.54 13.8-3.56 1.1-0.447 2.19-0.895 3.32-1.36 14.3-5.93 28-14.2 37.7-26.6 0.988-1.01 1.99-2.01 3-3 9.35-9.4 16.1-22.3 21-34.5 0.992-2.47 0.992-2.47 2.05-4.47 1.45-3.09 1.81-6.32 2.38-9.66 0.562-2.34 0.562-2.34 2.56-5.34 0.367-2.17 0.367-2.17 0.414-4.6 0.0388-0.949 0.0777-1.9 0.118-2.88 0.0308-1.04 0.0616-2.08 0.0933-3.15 0.0372-1.09 0.0744-2.17 0.113-3.29 0.286-9.42 0.367-18.8 0.387-28.3 0.00268-0.685 0.00536-1.37 0.00812-2.08 0.711-17.4 0.711-17.4-4.13-33.7-0.555-2.17-0.555-2.17-0.875-4.19-4.84-23.8-25-47.5-44.7-60.6-0.651-0.43-1.3-0.86-1.97-1.3-0.651-0.434-1.3-0.868-1.97-1.31-5.11-3.39-9.96-6.58-15.8-8.62-0.963-0.339-1.93-0.678-2.92-1.03-0.935-0.321-1.87-0.642-2.83-0.973-0.78-0.269-1.56-0.539-2.36-0.816-1.42-0.482-2.84-0.954-4.27-1.41-1.53-0.497-3.05-1.01-4.57-1.54-6.63-2.2-12.8-2.77-19.7-2.91-1.2-0.0332-2.39-0.0665-3.63-0.101-17.5-0.422-35-0.323-52.5-0.284-5.19 0.0102-10.4 0.0135-15.6 0.0174-14.3 0.0119-28.6 0.0337-42.9 0.0562-31.5 0.0497-63 0.0708-94.6 7.48e-4 -2.88-0.0059-5.76-0.0104-8.63-0.0145-10.5-0.0161-21-0.0585-31.6-0.145-3.13-0.0249-6.26-0.0385-9.39-0.0417-4.23-0.00491-8.47-0.0489-12.7-0.0977-1.23 0.00393-2.47 0.00786-3.74 0.0119-8.2-0.144-8.2-0.144-11.6-3.14-1.21-2.58-1.21-2.58-1.21-4.58h-2c-1.34-2.27-2.67-4.54-4-6.81-0.382-0.643-0.763-1.29-1.16-1.95-2.84-4.9-2.84-4.9-2.84-8.24h-2c-0.727-1.4-0.727-1.4-1.47-2.82-4-7.62-8.16-15-12.9-22.2-1.86-3.35-2.75-6.3-3.66-10h-2c-0.699-1.6-1.38-3.2-2.06-4.81-0.383-0.893-0.766-1.79-1.16-2.71-0.777-2.48-0.777-2.48 0.223-5.48zm342 4v1h5v-1h-5zm-211 240c-0.814 1.77-0.814 1.77-1.64 3.58-0.722 1.56-1.45 3.11-2.17 4.67-0.356 0.777-0.713 1.55-1.08 2.36-1.77 3.79-3.52 7.09-6.11 10.4-0.993 1.9-1.95 3.82-2.88 5.75-2.07 4.21-4.24 8.21-6.79 12.1-2.93 4.61-5.6 9.38-8.34 14.1-1.23 2.1-2.46 4.21-3.69 6.31-1.88 3.22-3.74 6.44-5.56 9.69-1.75 3-1.75 3-3.31 5.06-1.87 2.52-3.21 5.05-4.44 7.94 0.33 0.99 0.66 1.98 1 3h98c-0.898-3.13-0.898-3.13-3-6-1.89-3.15-3.72-6.33-5.56-9.5-0.761-1.3-0.761-1.3-1.54-2.63-0.484-0.834-0.968-1.67-1.47-2.53-0.443-0.761-0.886-1.52-1.34-2.31-1.09-2.04-1.09-2.04-2.09-5.04h-2c-0.309-1.18-0.309-1.18-0.625-2.38-1.45-3.82-3.28-6.95-5.41-10.4-2.49-4.08-4.88-8.21-7.27-12.3-0.704-1.22-0.704-1.22-1.42-2.46-4.49-7.77-8.89-15.6-13.3-23.4h-2c-0.495-2.48-0.495-2.48-1-5-1.65-0.33-3.3-0.66-5-1z" fill="#FAFBFC"/>
<path transform="translate(1078 1025)" d="m0 0c4.52 0.527 6.8 2.16 9.75 5.44 2.12 2.94 2.12 2.94 4 6 0.743 1.07 1.48 2.14 2.25 3.25 1.75 2.75 1.75 2.75 1.75 4.75 0.99 0.33 1.98 0.66 3 1 0.952 1.33 1.89 2.66 2.76 4.05 1.55 2.43 3.21 4.78 4.87 7.14 1.82 2.59 3.62 5.18 5.38 7.81 2.42 0.74 2.42 0.74 5 0 2.14-2.53 2.14-2.53 3.88-5.88 0.687-1.2 1.38-2.4 2.07-3.59 0.342-0.598 0.684-1.2 1.04-1.81 1.46-2.46 3.1-4.77 4.77-7.09 2-2.79 3.84-5.56 5.5-8.56 1.49-2.61 2.59-4.08 4.75-6.06 0.743-1.05 1.48-2.1 2.25-3.19 2.75-2.81 2.75-2.81 6.44-3.25 3.31 0.438 3.31 0.438 5.31 1.44v88h-17c-2.06-3.09-2.25-3.71-2.23-7.2 1.51e-4 -0.841 3.02e-4 -1.68 4.58e-4 -2.55 0.0103-0.903 0.0206-1.81 0.0313-2.74 0.00283-0.928 0.00566-1.86 0.00858-2.81 0.0112-2.97 0.0363-5.93 0.0617-8.89 0.01-2.01 0.0192-4.02 0.0273-6.03 0.0221-4.93 0.0566-9.86 0.0977-14.8-1.98 0.337-1.98 0.337-4 1-1.07 2.23-1.07 2.23-2 5-1.34 2.34-2.71 4.57-4.19 6.81-0.362 0.597-0.723 1.19-1.1 1.81-1.13 1.71-1.13 1.71-3.72 4.38-3.56 0.617-3.56 0.617-7 0-2.14-1.57-2.14-1.57-3.81-3.69-0.575-0.726-1.15-1.45-1.74-2.2-1.56-2.28-2.69-4.44-3.45-7.11h-2c-1.84-2.46-3.48-5.03-5.15-7.62-1.85-2.38-3.07-3.32-5.85-4.38-1.63 1.63-1.17 3.46-1.21 5.7-0.0199 1-0.0399 2-0.0604 3.03-0.0251 1.63-0.0251 1.63-0.0506 3.3-0.0208 1.11-0.0416 2.22-0.063 3.36-0.0656 3.56-0.124 7.11-0.183 10.7-0.0432 2.4-0.0868 4.81-0.131 7.21-0.107 5.91-0.209 11.8-0.307 17.7h-14c-1.58-3.15-1.15-6.54-1.15-10-0.00336-0.826-0.00672-1.65-0.0102-2.5-0.00952-2.74-0.0115-5.48-0.0125-8.22-0.00321-1.9-0.00658-3.8-0.0101-5.69-0.00599-3.98-0.00784-7.96-0.00725-11.9 1.02e-4 -5.11-0.0136-10.2-0.0308-15.3-0.0111-3.92-0.0131-7.84-0.0126-11.8-0.00118-1.89-0.00563-3.77-0.0133-5.66-0.00975-2.63-0.00694-5.26-8.95e-4 -7.89-0.00562-0.784-0.0112-1.57-0.017-2.38 0.043-7.32 0.043-7.32 5.51-8.06z" fill="#FBFCFD"/>
<path transform="translate(998 1025)" d="m0 0c0.741-0.00903 1.48-0.0181 2.24-0.0274 1.58-0.0145 3.15-0.0234 4.73-0.0271 2.36-0.0117 4.73-0.0607 7.09-0.112 11.4-0.122 22.2 1.2 31.6 8.29 1.54 1.56 1.54 1.56 2.94 3.25 0.503 0.578 1.01 1.15 1.52 1.75 4.8 6.78 4.59 15.3 3.83 23.2-0.754 4.23-2.93 7.46-6.36 10h-2c-0.268 0.619-0.536 1.24-0.812 1.88-1.19 2.12-1.19 2.12-4.19 4.12 1.24 4.09 2.77 7.38 5 11 1.11 1.89 2.21 3.79 3.31 5.69 2.75 4.73 5.55 9.41 8.43 14.1 1.32 2.36 2.31 4.73 3.26 7.25-15.1 0.117-15.1 0.117-19.3-2.34-1.57-1.81-2.62-3.51-3.68-5.66-0.403-0.705-0.807-1.41-1.22-2.14-1.74-3.18-2.78-5.19-2.78-8.86h-2c-0.473-0.999-0.946-2-1.43-3.03-3.28-7.14-3.28-7.14-8.89-12.2-4.48-0.54-8.59 0.283-12.7 2.22-1.44 2.87-1.11 5.34-1.1 8.54 0.00483 1.95 0.00483 1.95 0.00977 3.95 0.00836 1.38 0.0168 2.76 0.0254 4.14 0.00501 1.39 0.00958 2.78 0.0137 4.16 0.0118 3.4 0.0298 6.81 0.0488 10.2h-16c-1.58-3.15-1.15-6.54-1.15-10-0.00336-0.826-0.00672-1.65-0.0102-2.5-0.00952-2.74-0.0115-5.48-0.0125-8.22-0.00321-1.9-0.00658-3.8-0.0101-5.69-0.00599-3.98-0.00784-7.96-0.00725-11.9 1.02e-4 -5.11-0.0136-10.2-0.0308-15.3-0.0111-3.92-0.0131-7.84-0.0126-11.8-0.00118-1.89-0.00563-3.77-0.0133-5.66-0.00975-2.63-0.00694-5.26-8.95e-4 -7.89-0.00562-0.784-0.0112-1.57-0.017-2.38 0.0451-7.69 2.68-7.94 9.62-7.99zm7.64 18.4c-0.578 2.56-0.578 2.56-0.461 5.35 0.00387 1.02 0.00773 2.03 0.0117 3.08 0.0245 1.05 0.049 2.11 0.0742 3.2 0.00129 1.06 0.00258 2.12 0.00391 3.22-0.306 5.64-0.306 5.64 2.37 10.2 8.06 0.857 17.3 1.2 24-4 3.38-4.9 2.68-11.3 2-17-1.62-3.76-3.95-5.57-7.77-7.12-3.4-0.924-6.34-1.21-9.86-1.25-1.11-0.0284-2.21-0.0567-3.35-0.0859-3.75 0.572-4.69 1.53-7.02 4.46zm29 7v6h1v-6h-1z" fill="#FBFCFD"/>
<path transform="translate(814 1025)" d="m0 0c1.17 0.0142 2.35 0.0284 3.56 0.043 1.77 0.00967 1.77 0.00967 3.57 0.0195 2.87 0.168 2.87 0.168 3.87 1.17 0.16 2.81 0.26 5.6 0.316 8.41 0.0208 0.842 0.0416 1.68 0.063 2.55 0.0656 2.7 0.124 5.4 0.183 8.1 0.0432 1.83 0.0868 3.65 0.131 5.48 0.108 4.49 0.207 8.97 0.307 13.5h35c-0.0232-2.65-0.0464-5.3-0.0703-8.02-0.0156-2.56-0.0277-5.12-0.0396-7.67-0.0101-1.78-0.0237-3.56-0.041-5.34-0.0242-2.56-0.0356-5.11-0.0444-7.67-0.0103-0.799-0.0206-1.6-0.0313-2.42-3.99e-4 -1.96 0.104-3.91 0.227-5.87 2-2 2-2 5.19-2.23 1.26 0.0142 2.52 0.0284 3.81 0.043 1.26 0.00645 2.52 0.0129 3.81 0.0195 3.19 0.168 3.19 0.168 5.19 1.17 0.0235 8.23 0.0411 16.5 0.0518 24.7 0.00515 3.82 0.0121 7.64 0.0236 11.5 0.0508 17.3-0.0366 34.6-1.08 51.9h-16c-1.56-3.12-1.12-6.43-1.1-9.85 0.00141-0.774 0.00283-1.55 0.00429-2.35 0.0056-2.48 0.0182-4.95 0.0309-7.43 0.00501-1.68 0.00958-3.35 0.0137-5.03 0.011-4.11 0.0283-8.23 0.0488-12.3-4.82 0.118-9.65 0.242-14.5 0.372-1.64 0.0434-3.28 0.0851-4.93 0.125-2.36 0.0576-4.71 0.121-7.07 0.186-0.739 0.0167-1.48 0.0334-2.24 0.0506-3.44-0.199-3.44-0.199-6.3 1.27-0.16 2.59-0.259 5.16-0.316 7.75-0.0208 0.775-0.0416 1.55-0.063 2.35-0.0656 2.49-0.124 4.97-0.183 7.46-0.0432 1.68-0.0868 3.36-0.131 5.04-0.107 4.13-0.209 8.26-0.307 12.4h-15c-1.58-3.15-1.15-6.54-1.15-10-0.00336-0.826-0.00672-1.65-0.0102-2.5-0.00952-2.74-0.0115-5.48-0.0125-8.22-0.00321-1.9-0.00658-3.8-0.0101-5.69-0.00599-3.98-0.00784-7.96-0.00725-11.9 1.02e-4 -5.11-0.0136-10.2-0.0308-15.3-0.0111-3.92-0.0131-7.84-0.0126-11.8-0.00118-1.89-0.00563-3.77-0.0133-5.66-0.00975-2.63-0.00694-5.26-8.95e-4 -7.89-0.00562-0.784-0.0112-1.57-0.017-2.38 0.0437-7.45 0.0437-7.45 5.26-7.85z" fill="#FBFCFD"/>
<path transform="translate(529 1025)" d="m0 0c1.17 0.0142 2.33 0.0284 3.53 0.043 1.75 0.00967 1.75 0.00967 3.53 0.0195 2.97 0.168 2.97 0.168 4.97 1.17 0.33 11.5 0.66 23.1 1 35 8.02-5.01 13.1-9.98 19-17 3.86-4.5 7.81-8.81 12-13 0.66-0.908 1.32-1.82 2-2.75 2-2.25 2-2.25 4.38-3.31 3.79 0.0903 5.74 1.71 8.62 4.06v2c0.99 0.33 1.98 0.66 3 1-0.494 4.5-2.02 6.53-5.12 9.75-3.76 3.99-7.09 8.07-10.3 12.5-1.86 1.98-3 2.2-5.61 2.71-1.05 1.85-1.05 1.85-2 4-1.29 1.37-2.62 2.71-4 4 1.49 4.27 3.65 7.63 6.25 11.3 1.12 1.6 1.12 1.6 2.27 3.24 2.25 3.15 4.56 6.24 6.89 9.32 2.83 3.77 5.63 7.57 8.41 11.4 0.585 0.789 1.17 1.58 1.77 2.39 0.556 0.763 1.11 1.53 1.69 2.31 0.752 1.02 0.752 1.02 1.52 2.07 1.24 2.03 1.87 3.63 2.21 5.98-1.96 1.96-5.52 1.27-8.19 1.31-1.31 0.0374-2.63 0.0748-3.98 0.113-4.97-0.552-7.92-2.07-11.1-6-1.27-1.82-2.44-3.67-3.6-5.55-3.54-5.55-7.24-10.7-11.5-15.7-1.59-2.15-1.59-2.15-2.62-4.86-0.32-0.755-0.639-1.51-0.969-2.29-1.49-0.495-1.49-0.495-3-1-5.82 5.5-5.82 5.5-8.43 12.9l-0.0793 3.09c-0.0354 1.11-0.0709 2.22-0.107 3.37-0.0226 1.15-0.0451 2.3-0.0684 3.49-0.0342 1.17-0.0683 2.34-0.104 3.54-0.0823 2.88-0.147 5.76-0.209 8.64h-16c-1.58-3.15-1.15-6.54-1.15-10-0.00336-0.826-0.00672-1.65-0.0102-2.5-0.00952-2.74-0.0115-5.48-0.0125-8.22-0.00321-1.9-0.00658-3.8-0.0101-5.69-0.00599-3.98-0.00784-7.96-0.00725-11.9 1.02e-4 -5.11-0.0136-10.2-0.0308-15.3-0.0111-3.92-0.0131-7.84-0.0126-11.8-0.00118-1.89-0.00563-3.77-0.0133-5.66-0.00975-2.63-0.00694-5.26-8.95e-4 -7.89-0.00562-0.784-0.0112-1.57-0.017-2.38 0.0437-7.45 0.0437-7.45 5.23-7.85z" fill="#FBFCFD"/>
<path transform="translate(455 1025)" d="m0 0c0.794-0.00807 1.59-0.0161 2.41-0.0245 1.69-0.0139 3.38-0.0246 5.07-0.0324 2.55-0.017 5.1-0.0609 7.65-0.105 10.1-0.0947 17.9 0.834 27.1 5.4v2c0.596 0.262 1.19 0.523 1.8 0.793 2.32 1.28 3.62 2.51 5.32 4.52 0.498 0.574 0.995 1.15 1.51 1.74 5 7.12 4.32 16.6 3.37 24.9-2.32 7.87-8.23 12.8-15.1 16.8-4.28 1.77-8.32 2.3-12.9 2.47-1.39 0.0561-1.39 0.0561-2.81 0.113-1.95 0.0709-3.89 0.141-5.84 0.211-1.38 0.0561-1.38 0.0561-2.79 0.113-0.843 0.0303-1.69 0.0606-2.55 0.0918-1.96-0.0202-1.96-0.0202-2.96 1.19-0.159 2.14-0.251 4.29-0.316 6.44-0.0419 1.31-0.0838 2.61-0.127 3.96-0.0398 1.39-0.0795 2.78-0.119 4.17-0.0432 1.39-0.0868 2.79-0.131 4.18-0.106 3.42-0.209 6.84-0.307 10.3-2.25 0.0541-4.5 0.0929-6.75 0.125-1.25 0.0232-2.51 0.0464-3.8 0.0703-3.18-0.18-4.82-0.505-7.45-2.2-0.737-18.3-1.12-36.7-1.18-55-0.00682-2.11-0.0171-4.21-0.0308-6.32-0.0179-2.98-0.0222-5.97-0.0225-8.95-0.00715-0.892-0.0143-1.78-0.0217-2.7 0.036-9.91 0.733-14.1 11.1-14.2zm9.5 15.4c-1.87 2.65-1.65 4.61-1.6 7.83 0.00967 1.16 0.0193 2.33 0.0293 3.53 0.0251 1.21 0.0503 2.43 0.0762 3.68 0.0135 1.23 0.0271 2.45 0.041 3.72 0.0354 3.03 0.0848 6.06 0.146 9.1 3.52 1.76 7.56 1.18 11.4 1.19 1.31 0.0184 1.31 0.0184 2.64 0.0371 0.839 0.00193 1.68 0.00387 2.54 0.00586 1.15 0.00616 1.15 0.00616 2.33 0.0125 2.36-0.122 2.36-0.122 5.05-2.24v-2c0.99-0.33 1.98-0.66 3-1 2.3-6.91 1.67-13.9-1.54-20.3-3.12-3.53-6.64-4.57-11.2-5.05-1.3 0.00773-2.59 0.0155-3.93 0.0234-1.3-0.00773-2.61-0.0155-3.95-0.0234-3.24 0.121-3.24 0.121-5.06 1.55z" fill="#FAFBFC"/>
<path transform="translate(935 1025)" d="m0 0c1.06-0.0374 2.12-0.0748 3.21-0.113 2.85 0.426 2.85 0.426 4.64 2.2 1.11 2.05 1.92 3.87 2.58 6.1 2.96 9.38 6.25 18.5 10.4 27.4 1.68 3.85 2.95 7.8 4.2 11.8 0.927 2.73 2.01 5.35 3.17 7.99 1.9 4.45 3.58 9 5.31 13.5 0.296 0.768 0.592 1.54 0.896 2.33 0.264 0.689 0.527 1.38 0.799 2.09 0.806 2.04 0.806 2.04 1.91 4.09 1.19 2.48 1.11 4.42 1.04 7.16-0.018 0.892-0.0361 1.78-0.0547 2.7-0.0232 0.675-0.0464 1.35-0.0703 2.05-2.9 0.818-5.55 1.19-8.56 1.25-0.764 0.0258-1.53 0.0516-2.32 0.0781-2.71-0.419-3.48-1.16-5.12-3.33-0.879-1.98-0.879-1.98-1.56-4.19-0.228-0.715-0.456-1.43-0.691-2.17-0.995-3.53-1.86-7.09-2.75-10.6h-36c-1.32 5.61-2.64 11.2-4 17-0.33 0.66-0.66 1.32-1 2h-16c-1.19-4.76-0.0688-7.28 1.69-11.6 0.421-1.08 0.421-1.08 0.85-2.18 1.45-3.71 2.95-7.39 4.46-11.1 1.9-4.66 3.44-9.41 5-14.2 1.77-5.39 3.57-10.7 6-15.8 1.29-2.77 2.46-5.58 3.63-8.4 0.405-0.975 0.81-1.95 1.23-2.95 1.67-4.07 3.28-8.09 4.59-12.3 1.15-3.48 2.41-6.5 4.56-9.5 2.7-1.35 4.92-1.24 7.94-1.31zm-4.59 28.9c-1.62 2.88-2.2 5.47-2.84 8.71-0.799 3.79-1.58 7.25-3.25 10.8-1.65 3.05-1.65 3.05-0.25 6.94h21c0.33-1.32 0.66-2.64 1-4h-2c-0.0825-0.763-0.165-1.53-0.25-2.31-1.53-7.54-4.63-14.7-7.75-21.7-3.91-0.464-3.91-0.464-5.66 1.61z" fill="#FAFBFC"/>
<path transform="translate(731,1025)" d="m0 0c4.96-0.0747 9.92-0.129 14.9-0.165 1.68-0.015 3.37-0.0354 5.05-0.0615 17.2-0.26 17.2-0.26 25.1 3.23 0.714 0.29 1.43 0.58 2.17 0.879 6.4 2.64 11 7.22 13.9 13.5 3.02 8.98 3.07 18-1.1 26.6-3.82 7.02-8.43 10.6-16 13.1-7.48 1.87-15.4 1.69-23.1 1.73-2.03 0.00449-2.03 0.00449-3.95 1.13v29h-17c-1.58-3.15-1.14-6.54-1.13-10-0.00175-0.826-0.0035-1.65-0.00531-2.5-0.00441-2.74-0.00148-5.48 0.00189-8.22-6.73e-4 -1.9-0.00164-3.8-0.0029-5.69-0.00148-3.98 6.75e-4 -7.96 0.00534-11.9 0.0057-5.11 0.00242-10.2-0.00357-15.3-0.00361-3.92-0.00247-7.84 1.28e-4 -11.8 6.69e-4 -1.89-1.57e-4 -3.77-0.00248-5.66-0.00253-2.63 0.00132-5.26 0.0069-7.89-0.00202-0.784-0.00405-1.57-0.00613-2.38 0.0213-5.39 0.0213-5.39 1.14-7.62zm16 17c-2.05 5.78-0.89 12.5-0.188 18.5 0.082 0.707 0.164 1.41 0.249 2.14 0.496 4.12 0.496 4.12 2.94 7.36 4 0.363 7.99 0.151 12 0 0.802-0.018 1.6-0.0361 2.43-0.0547 3.66-0.235 5.32-0.709 8.01-3.26 2.45-4.21 2.74-7.78 2.81-12.6 0.0258-1.02 0.0516-2.04 0.0781-3.09-0.377-3.41-1.31-5.22-3.33-7.97-4.79-3.35-8.65-4.17-14.4-4.25-1.13-0.0258-2.27-0.0516-3.43-0.0781-3.43 0.36-4.78 0.833-7.13 3.33z" fill="#FAFBFC"/>
<path transform="translate(1214 1026)" d="m0 0c4.74 4.86 6.7 10.9 8.73 17.3 1.53 4.79 3.23 9.39 5.59 13.8 2.38 4.72 3.96 9.61 5.55 14.6 2.52 7.76 5.3 15.3 8.56 22.8 1.35 3.33 2.68 6.66 4 10 0.365 0.861 0.73 1.72 1.11 2.61 0.98 2.62 1.05 4.62 0.895 7.39-2.33 0.698-4.66 1.36-7 2-1.03 0.309-2.06 0.619-3.12 0.938-2.88 0.0625-2.88 0.0625-5.62-1.69-2.67-3.86-3.16-6.84-3.7-11.4-0.557-3.49-0.557-3.49-3.55-8.82-17.3-0.495-17.3-0.495-35-1-0.66 2.97-1.32 5.94-2 9-0.633 1.85-1.31 3.69-2.06 5.5-0.342 0.835-0.683 1.67-1.04 2.53-0.902 1.97-0.902 1.97-1.9 2.97-2.53 0.0731-5.03 0.0925-7.56 0.0625-0.711-0.00451-1.42-0.00902-2.15-0.0137-1.76-0.0118-3.52-0.0298-5.28-0.0488-1.36-4.08-0.172-5.58 1.5-9.5 0.56-1.34 1.12-2.68 1.67-4.02 0.297-0.718 0.594-1.44 0.9-2.17 1.66-4.11 3.16-8.27 4.68-12.4 1.69-4.65 3.39-9.29 5.25-13.9 0.433-1.18 0.866-2.35 1.31-3.56 1.71-4.59 3.61-9.09 5.5-13.6 1.57-3.75 3.07-7.5 4.43-11.3 1.45-3.83 3.01-7.61 4.62-11.4 0.472-1.11 0.944-2.22 1.43-3.37 3.24-5.26 9.01-6.33 14.3-3.26zm-6.56 25.5c-3.21 4.37-4.81 9.51-6.62 14.6-0.312 0.85-0.624 1.7-0.945 2.58-2.01 5.34-2.01 5.34-3.43 10.9 1.02 1.24 1.02 1.24 3.13 1.11 1.37-0.00786 1.37-0.00786 2.78-0.0159 0.989-0.00322 1.98-0.00645 3-0.00977 1.56-0.0126 1.56-0.0126 3.15-0.0254 1.04-0.00451 2.09-0.00902 3.17-0.0137 2.59-0.0118 5.18-0.0283 7.77-0.0488-0.601-4.44-1.73-8.28-3.38-12.4-0.446-1.13-0.892-2.26-1.35-3.43-1.38-3.4-2.81-6.77-4.27-10.1-0.33-0.99-0.66-1.98-1-3h-2z" fill="#FBFCFD"/>
<path transform="translate(644 1025)" d="m0 0c0.945-0.0606 1.89-0.121 2.86-0.184 3.33 0.732 4.68 2.04 6.7 4.75 2.05 3.39 3.3 7 4.57 10.7 0.598 1.69 1.2 3.39 1.8 5.08 0.295 0.845 0.589 1.69 0.893 2.56 1.31 3.72 2.68 7.42 4.06 11.1 0.249 0.666 0.497 1.33 0.754 2.02 1.25 3.32 2.56 6.58 4.06 9.79 2.3 4.98 4.03 10.2 5.81 15.4 2.09 6.08 4.59 11.9 7.26 17.8 1.53 3.42 2.83 6.85 3.94 10.4-3.58 0.807-6.96 1.19-10.6 1.25-0.941 0.0258-1.88 0.0516-2.85 0.0781-2.52-0.328-2.52-0.328-4.19-1.4-1.93-2.78-2.99-5.81-4.09-8.99-0.233-0.637-0.467-1.27-0.707-1.93-0.58-1.65-1.07-3.33-1.54-5.01 0.33-0.66 0.66-1.32 1-2h-2v-2c-4.31-0.0293-8.62-0.0469-12.9-0.0625-1.21-0.00838-2.42-0.0168-3.67-0.0254-6.55-0.0178-12.9 0.198-19.4 1.09-0.11 0.797-0.219 1.59-0.332 2.41-0.159 1.06-0.317 2.12-0.48 3.21-0.151 1.04-0.302 2.09-0.457 3.16-0.73 3.21-0.73 3.21-3.73 9.21h-16c-1-2-1-2-0.398-4.18 0.338-0.889 0.675-1.78 1.02-2.7 0.374-0.989 0.748-1.98 1.13-3 1.21-3.04 2.46-6.05 3.74-9.07 2.11-4.99 3.86-10 5.53-15.2 1.47-4.38 3.21-8.63 4.97-12.9 1.17-2.9 2.3-5.81 3.38-8.75 1.08-2.91 2.27-5.74 3.56-8.56 1.94-4.29 3.53-8.66 5.12-13.1 3.88-10.7 3.88-10.7 11.3-11zm-1.31 27.4c-2.42 2.42-2.86 4.25-3.88 7.5-1.57 4.9-3.35 9.62-5.39 14.3-0.949 2.41-0.949 2.41-0.734 6.16h22c-0.33-2.97-0.66-5.94-1-9h-2c-0.133-0.736-0.266-1.47-0.402-2.23-0.177-0.976-0.353-1.95-0.535-2.96-0.174-0.963-0.348-1.93-0.527-2.92-0.488-2.64-1-5.27-1.54-7.89h-2v-3h-4z" fill="#FBFCFD"/>
<path transform="translate(390 1025)" d="m0 0c0.947-0.04 1.89-0.0799 2.87-0.121 2.69 0.559 2.69 0.559 4.86 2.63 2.06 3.29 3.44 6.6 4.71 10.2 0.514 1.42 1.03 2.84 1.54 4.27 0.26 0.728 0.519 1.46 0.787 2.21 1.29 3.61 2.64 7.19 3.98 10.8 0.238 0.642 0.475 1.28 0.72 1.94 1.57 4.22 3.31 8.36 5.09 12.5 1.7 4.32 3.35 8.66 5 13 0.28 0.724 0.559 1.45 0.848 2.2 1.51 3.94 2.85 7.92 4.15 11.9 1.08 3.3 2.17 6.21 3.75 9.31 1.35 2.77 1.52 4.52 1.25 7.56-4.8 1.57-8.89 2.59-14 2-3.41-3.34-4.31-7.73-5.56-12.2-0.746-2.64-1.55-5.21-2.44-7.81-2.89-1.44-5.4-1.13-8.62-1.13-0.98-0.00144-0.98-0.00144-1.98-0.0029-1.38-6.81e-4 -2.77 0.00117-4.15 0.00534-2.11 0.00533-4.22 6.05e-5 -6.33-0.00635-1.35 6.61e-4 -2.69 0.00194-4.04 0.00391-1.22 0.00113-2.45 0.00226-3.71 0.00342-2.61 0.106-4.74 0.211-7.18 1.13-1.08 2-1.08 2-1.62 4.5-0.236 0.895-0.472 1.79-0.715 2.71-0.929 3.92-1.83 7.84-2.66 11.8-5.28-0.33-10.6-0.66-16-1-1.06-4.23-0.756-5.07 0.993-8.8 1.22-2.67 2.26-5.38 3.31-8.12 0.419-1.09 0.838-2.18 1.27-3.31 0.429-1.12 0.859-2.25 1.3-3.4 1.28-3.33 1.28-3.33 2.55-6.66 0.425-1.11 0.85-2.22 1.29-3.36 1.67-4.37 3.35-8.73 5.03-13.1 1.26-3.28 2.52-6.57 3.79-9.86 1.26-3.29 1.26-3.29 2.53-6.58 0.421-1.1 0.842-2.2 1.28-3.33 0.825-2.15 1.65-4.3 2.49-6.44 0.77-2 1.53-4 2.27-6 0.509-1.35 0.509-1.35 1.03-2.72 0.292-0.789 0.584-1.58 0.885-2.39 2.11-4.11 5.24-4.27 9.43-4.37zm-4.02 29.1c-1.71 2.86-2.23 5.35-2.86 8.62-0.868 4.13-1.8 7.66-3.81 11.4-0.866 1.67-0.866 1.67-1.75 3.38 0.33 0.99 0.66 1.98 1 3h21c-0.741-7.09-0.741-7.09-2-14h-2c-0.199-1.01-0.199-1.01-0.402-2.05-0.177-0.892-0.353-1.78-0.535-2.7-0.174-0.882-0.348-1.76-0.527-2.67-0.459-2.21-0.969-4.39-1.54-6.58-3.7-0.461-3.7-0.461-6.58 1.62z" fill="#FBFCFD"/>
<path transform="translate(826,1079)" d="m0 0h1c0.33 11.5 0.66 23.1 1 35-0.99 0.495-0.99 0.495-2 1v-36z" fill="#000002"/>
<path transform="translate(542,1027)" d="m0 0c2 2 2 2 2.23 4.07-0.132 8-0.628 15.9-1.23 23.9h-1v-28z" fill="#000002"/>
<path transform="translate(826,1027)" d="m0 0h1v34h-1v-34z" fill="#000002"/>
<path transform="translate(542,1089)" d="m0 0h1c0.33 8.25 0.66 16.5 1 25h-2v-25z" fill="#000002"/>
<path transform="translate(748,1042)" d="m0 0h1v22h-1c-1.33-14.6-1.33-14.6 0-22z" fill="#000002"/>
<path transform="translate(637,838)" d="m0 0h24v1h-24v-1z" fill="#000002"/>
<path transform="translate(871,509)" d="m0 0h16v1h-16v-1z" fill="#000002"/>
<path transform="translate(1007,1101)" d="m0 0h1v14h-1v-14z" fill="#000002"/>
<path transform="translate(775,838)" d="m0 0h14v1h-14v-1z" fill="#000002"/>
<path transform="translate(1053,1048)" d="m0 0h1v13h-1v-13z" fill="#000002"/>
<path transform="translate(1006,1085)" d="m0 0h1v11h-1v-11z" fill="#000002"/>
<path transform="translate(1082,605)" d="m0 0c2 2 2 2 2.12 4.62-0.0412 0.784-0.0825 1.57-0.125 2.38-0.66-0.33-1.32-0.66-2-1v-6z" fill="#000002"/>
<path transform="translate(635,1094)" d="m0 0h9v1h-9v-1z" fill="#000002"/>
<path transform="translate(464,1106)" d="m0 0h1v8h-1v-8z" fill="#000002"/>
<path transform="translate(879,1092)" d="m0 0h1v7h-1v-7z" fill="#000002"/>
<path transform="translate(464,1042)" d="m0 0h1v7h-1v-7z" fill="#000002"/>
<path transform="translate(1078,691)" d="m0 0c0.33 0.99 0.66 1.98 1 3-0.99 0.495-0.99 0.495-2 1 0.33-1.32 0.66-2.64 1-4z" fill="#000002"/>
<path transform="translate(671,1116)" d="m0 0h5v1h-5v-1z" fill="#000002"/>
<path transform="translate(1082,666)" d="m0 0h1v5h-1v-5z" fill="#000002"/>
<path transform="translate(748,1086)" d="m0 0 1 4z" fill="#000002"/>
<path transform="translate(896,838)" d="m0 0 4 1z" fill="#000002"/>
<path transform="translate(961,1116)" d="m0 0c3 1 3 1 3 1z" fill="#000002"/>
<path transform="translate(376,1094)" d="m0 0 2 1z" fill="#000002"/>
<path transform="translate(1114,1089)" d="m0 0 2 1z" fill="#000002"/>
<path transform="translate(762,1040)" d="m0 0 2 1z" fill="#000002"/>
<path transform="translate(947,829)" d="m0 0 2 1z" fill="#000002"/>
</svg>
